# xmcd
#
# Track frame offsets: 
#        150
#        16670
#        35068
#        58074
#        74623
#        96018
#        116404
#        136155
#        162662
#        184672
#
# Disc length: 2657 seconds
#
# Revision: 0
# Processed by: cddbd v1.5.2PL0 Copyright (c) Steve Scherf et al.
# Submitted via: ExactAudioCopy v1.0b4
#
DISCID=870a5f0a
DTITLE=Sean Chambers - Trouble and Whiskey
DYEAR=2017
DGENRE=Blues
TTITLE0=I Need Your Lovin'
TTITLE1=Bottle Keeps Staring At Me
TTITLE2=Trouble and Whiskey
TTITLE3=Travelin' North
TTITLE4=Cut Off My Right Arm
TTITLE5=Bullfrog Blues
TTITLE6=Sweeter Than A Honey Bee
TTITLE7=Handyman
TTITLE8=Be Careful With A Fool
TTITLE9=Gonna Groove
EXTD=
EXTT0=
EXTT1=
EXTT2=
EXTT3=
EXTT4=
EXTT5=
EXTT6=
EXTT7=
EXTT8=
EXTT9=
PLAYORDER=
